<svg width="926" height="262" viewBox="0 0 926 262" fill="none" xmlns="http://www.w3.org/2000/svg">
<path opacity="0.9" fill-rule="evenodd" clip-rule="evenodd" d="M534.739 31.0571C534.739 48.2095 520.834 62.1143 503.682 62.1143C486.529 62.1143 470.14 48.2095 470.14 31.0571C470.14 13.9048 486.529 0 503.682 0C520.834 0 534.739 13.9048 534.739 31.0571ZM572.837 211.188V123.732H554.203V82.7362H572.837V81.9908C572.837 64.4332 578.055 50.4368 588.49 40.0016C599.091 29.5664 614.081 24.3488 633.46 24.3488C639.423 24.3488 645.386 24.9285 651.349 26.088C657.478 27.0818 662.613 28.7382 666.754 31.0571L653.337 70.0649C651.515 69.2367 649.527 68.4913 647.374 67.8288C645.221 67.1662 642.985 66.8349 640.666 66.8349C636.69 66.8349 633.46 68.0772 630.976 70.5618C628.491 73.0464 627.249 77.0217 627.249 82.4877V82.7362H656.815V123.732H628.988V211.188H572.837ZM686.133 211.188V26.8333H742.285V211.188H686.133ZM0 37.2685V211.188H57.1451V132.104L123.235 211.188H171.435V37.2685H114.29V116.353L48.2007 37.2685H0ZM221.303 204.729C233.229 210.692 246.894 213.673 262.299 213.673C277.703 213.673 291.368 210.692 303.294 204.729C315.22 198.6 324.496 190.235 331.121 179.634C337.912 169.034 341.308 156.859 341.308 143.111C341.308 129.363 337.912 117.189 331.121 106.588C324.496 95.9872 315.22 87.7053 303.294 81.7423C291.368 75.7794 277.703 72.7979 262.299 72.7979C246.894 72.7979 233.229 75.7794 221.303 81.7423C209.543 87.7053 200.267 95.9872 193.476 106.588C186.685 117.189 183.289 129.363 183.289 143.111C183.289 156.859 186.685 169.034 193.476 179.634C200.267 190.235 209.543 198.6 221.303 204.729ZM424.475 213.673C405.758 213.673 391.182 209.201 380.747 200.256C370.312 191.146 365.094 177.233 365.094 158.516V123.732H346.46V82.7362H365.094V44.7223H421.245V82.7362H449.072V123.732H421.245V158.019C421.245 162.16 422.322 165.39 424.475 167.708C426.794 170.027 429.61 171.187 432.923 171.187C437.726 171.187 441.95 169.945 445.594 167.46L459.011 206.468C454.704 208.952 449.486 210.774 443.358 211.934C437.395 213.093 431.101 213.673 424.475 213.673ZM475.648 75.2825V211.188H531.799V75.2825H475.648ZM781.626 258.395C789.411 260.714 797.031 261.874 804.484 261.874C814.091 261.874 822.87 260.466 830.821 257.65C838.937 254.834 846.225 249.948 852.685 242.991C859.31 236.034 865.108 226.344 870.077 213.921L925.98 75.2825H872.81L844.216 148.156L816.162 75.2825H758.52L815.719 212.754C814.931 213.682 814.084 214.486 813.18 215.164C810.53 217.317 806.72 218.394 801.751 218.394C798.438 218.394 794.96 217.731 791.316 216.406C787.838 215.081 784.69 213.342 781.875 211.188L763.24 249.699C767.878 253.343 774.007 256.242 781.626 258.395ZM263.364 171.435C278.458 171.435 290.695 159.199 290.695 144.105C290.695 129.011 278.458 116.775 263.364 116.775C248.27 116.775 236.034 129.011 236.034 144.105C236.034 159.199 248.27 171.435 263.364 171.435Z" fill="#0044CC"/>
</svg>
