<svg width="92" height="22" viewBox="0 0 92 22" fill="none" xmlns="http://www.w3.org/2000/svg">
<g clip-path="url(#clip0_4667_194722)">
<path d="M16.6647 0.468968C16.2782 0.46235 15.9044 0.606901 15.6229 0.871827C15.4791 1.00703 15.3656 1.17124 15.2899 1.3536C15.2143 1.53596 15.1783 1.73231 15.1842 1.92964C15.1804 2.12287 15.2152 2.31492 15.2868 2.49447C15.3583 2.67402 15.465 2.83744 15.6007 2.9751C15.7349 3.11635 15.8971 3.22809 16.0768 3.3032C16.2566 3.37831 16.4501 3.41513 16.6449 3.41132C16.84 3.41264 17.0334 3.37518 17.2139 3.30112C17.3944 3.22706 17.5584 3.11788 17.6964 2.97992C17.8344 2.84195 17.9435 2.67795 18.0176 2.49744C18.0917 2.31694 18.1291 2.12351 18.1278 1.92841C18.1338 1.73107 18.0977 1.53473 18.0221 1.35237C17.9465 1.17001 17.833 1.00579 17.6891 0.870591C17.4134 0.607728 17.0456 0.463522 16.6647 0.468968Z" fill="#191C1F"/>
<path d="M16.6653 4.88335C16.5133 4.87944 16.3621 4.9065 16.2209 4.96287C16.0797 5.01925 15.9514 5.10376 15.8439 5.21127C15.7364 5.31877 15.6519 5.44703 15.5955 5.58823C15.5391 5.72943 15.5121 5.88062 15.516 6.03261V15.7704C15.5121 15.9224 15.5391 16.0736 15.5955 16.2148C15.6519 16.356 15.7364 16.4843 15.8439 16.5918C15.9514 16.6993 16.0797 16.7838 16.2209 16.8402C16.3621 16.8965 16.5133 16.9236 16.6653 16.9197C16.8172 16.9247 16.9685 16.8976 17.1093 16.8401C17.2501 16.7826 17.3771 16.696 17.4821 16.586C17.5853 16.4773 17.666 16.3493 17.7197 16.2094C17.7733 16.0694 17.7988 15.9203 17.7948 15.7704V6.03261C17.7988 5.88278 17.7733 5.73361 17.7197 5.59366C17.666 5.4537 17.5853 5.32571 17.4821 5.21701C17.377 5.10721 17.2499 5.02077 17.1092 4.96328C16.9684 4.9058 16.8172 4.87857 16.6653 4.88335Z" fill="#191C1F"/>
<path d="M26.7628 10.1591L30.6641 6.62852C30.7835 6.5365 30.8807 6.4187 30.9483 6.2839C31.0159 6.1491 31.0522 6.00078 31.0546 5.84999C31.0405 5.58245 30.9314 5.32872 30.7469 5.13449C30.654 5.01704 30.5354 4.92252 30.4002 4.85823C30.265 4.79395 30.1168 4.76162 29.9671 4.76376C29.6961 4.7662 29.4363 4.87182 29.2405 5.0591L23.9576 9.83657V1.15903C23.9626 1.00764 23.9371 0.856794 23.8826 0.715458C23.8281 0.574122 23.7458 0.445188 23.6405 0.336325C23.5352 0.227462 23.409 0.140895 23.2696 0.0817746C23.1301 0.0226539 22.9802 -0.0078125 22.8287 -0.0078125C22.6772 -0.0078125 22.5273 0.0226539 22.3878 0.0817746C22.2484 0.140895 22.1223 0.227462 22.0169 0.336325C21.9116 0.445188 21.8293 0.574122 21.7748 0.715458C21.7203 0.856794 21.6948 1.00764 21.6998 1.15903V15.788C21.6948 15.9394 21.7203 16.0902 21.7748 16.2316C21.8293 16.3729 21.9116 16.5019 22.0169 16.6107C22.1223 16.7196 22.2484 16.8061 22.3878 16.8653C22.5273 16.9244 22.6772 16.9549 22.8287 16.9549C22.9802 16.9549 23.1301 16.9244 23.2696 16.8653C23.409 16.8061 23.5352 16.7196 23.6405 16.6107C23.7458 16.5019 23.8281 16.3729 23.8826 16.2316C23.9371 16.0902 23.9626 15.9394 23.9576 15.788V12.6838L25.1365 11.6148L29.1811 16.5814C29.2756 16.7125 29.4 16.8191 29.5441 16.8924C29.6881 16.9657 29.8475 17.0035 30.0091 17.0028C30.2657 16.9966 30.5132 16.9063 30.7135 16.7457L30.7283 16.7334C30.8534 16.6363 30.955 16.5124 31.0258 16.3708C31.0966 16.2292 31.1347 16.0736 31.1374 15.9153C31.1389 15.6599 31.045 15.4131 30.8742 15.2233L26.7628 10.1591Z" fill="#191C1F"/>
<path d="M11.4114 7.79915C10.8916 6.87811 10.1329 6.11435 9.21541 5.58837C8.26514 5.06156 7.19647 4.78516 6.10994 4.78516C5.02341 4.78516 3.95473 5.06156 3.00446 5.58837C2.08451 6.11327 1.32362 6.87715 0.802333 7.79915C0.265819 8.74906 -0.010811 9.82362 0.000323311 10.9145V20.6276C0.000323347 20.9324 0.121402 21.2247 0.33693 21.4403C0.552459 21.6558 0.844772 21.7769 1.14958 21.7769C1.45438 21.7769 1.74671 21.6558 1.96223 21.4403C2.17776 21.2247 2.29884 20.9324 2.29884 20.6276V15.4547C2.69901 15.8408 3.15469 16.1649 3.65076 16.4161C4.46476 16.825 5.36466 17.0334 6.27552 17.0241C7.32797 17.0379 8.36438 16.7655 9.27399 16.2359C10.1836 15.7064 10.9322 14.9396 11.4398 14.0175C11.9634 13.0679 12.232 11.9988 12.2196 10.9145C12.2304 9.82366 11.9538 8.74917 11.4175 7.79915H11.4114ZM5.86278 14.885H5.79852L5.70336 14.8776C5.6045 14.8677 5.52047 14.8578 5.44015 14.8442L5.3314 14.8269C5.31953 14.8224 5.30702 14.8199 5.29433 14.8195L5.18806 14.7973C4.97934 14.7519 4.77536 14.6869 4.57882 14.6033C4.53905 14.5889 4.50025 14.572 4.46267 14.5526C4.42559 14.5378 4.39099 14.5205 4.35021 14.4995L4.23899 14.4426C4.20068 14.4229 4.16484 14.4018 4.12776 14.3808C3.54398 14.0441 3.06359 13.5539 2.73877 12.9634C2.406 12.3335 2.23208 11.6319 2.23208 10.9195C2.23208 10.2071 2.406 9.50542 2.73877 8.8755C3.06584 8.28265 3.54648 7.78877 4.13024 7.44572C4.34967 7.31524 4.58251 7.20876 4.82474 7.12813C4.90383 7.10095 4.98539 7.075 5.07189 7.05399C5.41074 6.9654 5.7597 6.92137 6.10994 6.923C6.8042 6.91484 7.48763 7.09552 8.08716 7.44572C8.67004 7.78948 9.15012 8.28321 9.47739 8.8755C9.81016 9.50542 9.9841 10.2071 9.9841 10.9195C9.9841 11.6319 9.81016 12.3335 9.47739 12.9634C9.15181 13.5533 8.6716 14.0434 8.0884 14.3808C7.4871 14.7258 6.80434 14.9033 6.11117 14.8949H5.96289L5.86278 14.885Z" fill="#191C1F"/>
<path d="M66.4604 5.58837C65.5101 5.06156 64.4414 4.78516 63.3549 4.78516C62.2684 4.78516 61.1997 5.06156 60.2494 5.58837C59.3295 6.11295 58.569 6.87694 58.0485 7.79915C57.5118 8.749 57.2352 9.8236 57.2465 10.9145C57.234 11.9989 57.5026 13.0679 58.0263 14.0175C58.5339 14.9392 59.2824 15.7056 60.1918 16.2349C61.1011 16.7642 62.1372 17.0366 63.1893 17.0229C64.0996 17.032 64.999 16.824 65.8128 16.4161C66.3088 16.1643 66.7645 15.8398 67.1647 15.4535V15.7908C67.16 15.9428 67.1872 16.094 67.2447 16.2348C67.3022 16.3755 67.3886 16.5025 67.4984 16.6077C67.6071 16.7109 67.7351 16.7916 67.8751 16.8453C68.015 16.8989 68.1642 16.9244 68.314 16.9203C68.4661 16.9242 68.6174 16.897 68.7587 16.8405C68.9 16.784 69.0283 16.6993 69.1358 16.5916C69.242 16.4874 69.3258 16.3627 69.3821 16.225C69.4384 16.0873 69.466 15.9396 69.4633 15.7908V10.9145C69.4744 9.82362 69.1978 8.74906 68.6613 7.79915C68.1408 6.87694 67.3802 6.11295 66.4604 5.58837ZM67.2018 10.9145C67.2119 11.6281 67.0374 12.3322 66.6952 12.9585C66.3725 13.5468 65.8968 14.0369 65.3185 14.3771C64.7217 14.7221 64.0429 14.8997 63.3537 14.8912C62.6605 14.8992 61.9779 14.7217 61.3764 14.3771C60.7931 14.0393 60.3128 13.5488 59.9874 12.9585C59.6547 12.3286 59.4807 11.6269 59.4807 10.9145C59.4807 10.2021 59.6547 9.50047 59.9874 8.87056C60.3148 8.27796 60.7954 7.78417 61.3789 7.44078C61.9783 7.09023 62.6618 6.90953 63.3561 6.91805C64.0458 6.90915 64.7247 7.08998 65.3185 7.44078C65.8981 7.78628 66.3754 8.27975 66.7013 8.87056C67.0429 9.49704 67.217 10.2011 67.2068 10.9145H67.2018Z" fill="#191C1F"/>
<path d="M77.7543 14.6389H77.1945C76.9422 14.6489 76.6908 14.6035 76.4578 14.5059C76.2249 14.4084 76.0162 14.261 75.8463 14.0742C75.4879 13.6861 75.3149 13.1955 75.3149 12.5727V7.37015H77.3193C77.461 7.37524 77.6023 7.35158 77.7346 7.30061C77.8669 7.24964 77.9876 7.17241 78.0892 7.07357C78.1854 6.9787 78.2614 6.86526 78.3123 6.74013C78.3633 6.615 78.3883 6.4808 78.3858 6.3457C78.3897 6.20719 78.3652 6.06935 78.314 5.94059C78.2628 5.81183 78.1859 5.69486 78.088 5.59683C77.9866 5.49797 77.8662 5.42071 77.7341 5.36973C77.602 5.31875 77.4609 5.29511 77.3193 5.30025H75.3149V2.42709C75.3188 2.275 75.2917 2.1237 75.2353 1.98241C75.1789 1.84113 75.0942 1.71281 74.9866 1.60529C74.879 1.49776 74.7505 1.41328 74.6092 1.35698C74.4678 1.30069 74.3165 1.27376 74.1644 1.27783C74.0125 1.27328 73.8614 1.30062 73.7207 1.35809C73.58 1.41556 73.4529 1.50188 73.3476 1.61149C73.1401 1.83152 73.0281 2.12475 73.0362 2.42709V5.30395H72.0278C71.8861 5.29865 71.7448 5.32221 71.6124 5.37319C71.4801 5.42417 71.3594 5.50152 71.2579 5.60054C71.1603 5.69876 71.0837 5.81579 71.0327 5.94452C70.9818 6.07325 70.9575 6.211 70.9613 6.34941C70.9584 6.48456 70.9832 6.61889 71.0342 6.74408C71.0852 6.86928 71.1613 6.98268 71.2579 7.07727C71.3594 7.17629 71.4801 7.25364 71.6124 7.30462C71.7448 7.3556 71.8861 7.37916 72.0278 7.37386H73.0362V12.5727C73.0246 13.3403 73.2065 14.0985 73.5651 14.7773C73.915 15.4331 74.4388 15.9799 75.0791 16.3574C75.7194 16.735 76.4513 16.9289 77.1945 16.9177H77.6308C77.9452 16.9257 78.2504 16.8114 78.4822 16.5988C78.5972 16.4977 78.6889 16.3729 78.7509 16.233C78.813 16.093 78.844 15.9413 78.8418 15.7882C78.85 15.4904 78.7439 15.2007 78.5452 14.9788C78.4459 14.8682 78.3237 14.7805 78.1872 14.7219C78.0506 14.6632 77.9029 14.6349 77.7543 14.6389Z" fill="#191C1F"/>
<path d="M43.9346 4.8869C43.7849 4.88117 43.6357 4.90644 43.4962 4.96111C43.3567 5.01578 43.23 5.09868 43.1241 5.20462C43.0182 5.31055 42.9353 5.43723 42.8806 5.5767C42.8259 5.71618 42.8007 5.86545 42.8064 6.01515V12.1581C42.8098 12.6414 42.6639 13.114 42.3887 13.5113C42.0936 13.9334 41.6919 14.2698 41.2246 14.4863C40.696 14.7326 40.1184 14.8559 39.5353 14.8472C38.5232 14.8472 37.6977 14.5543 37.0811 13.9747C36.4644 13.3951 36.1605 12.5388 36.1605 11.4105V6.01144C36.163 5.86274 36.1352 5.71508 36.0789 5.57742C36.0227 5.43976 35.939 5.31499 35.833 5.21067C35.7253 5.10324 35.597 5.01882 35.4557 4.96253C35.3144 4.90623 35.1632 4.87924 35.0112 4.88319C34.8624 4.88103 34.7147 4.90873 34.5769 4.96466C34.439 5.0206 34.3138 5.10362 34.2086 5.20883C34.1034 5.31403 34.0203 5.43927 33.9644 5.57713C33.9085 5.715 33.8808 5.86268 33.8829 6.01144V11.4068C33.8829 12.5672 34.1202 13.583 34.5898 14.4258C35.0428 15.2561 35.7305 15.9343 36.567 16.3758C37.433 16.8249 38.3968 17.0525 39.3722 17.0382C40.1484 17.0445 40.917 16.8861 41.6275 16.5735C42.0516 16.3848 42.4492 16.1414 42.8101 15.8494C42.8207 16.1225 42.9311 16.3824 43.1203 16.5797C43.2251 16.69 43.3521 16.7768 43.4929 16.8345C43.6336 16.8922 43.785 16.9195 43.9371 16.9146C44.0891 16.9185 44.2403 16.8914 44.3815 16.8351C44.5227 16.7787 44.651 16.6942 44.7585 16.5867C44.866 16.4792 44.9505 16.3509 45.0068 16.2097C45.0632 16.0685 45.0903 15.9173 45.0864 15.7653V6.01144C45.0909 5.85953 45.0636 5.70836 45.0061 5.56766C44.9486 5.42697 44.8623 5.29988 44.7527 5.1946C44.5315 4.98783 44.2373 4.87718 43.9346 4.8869Z" fill="#191C1F"/>
<path d="M91.6854 11.4838C91.7895 11.3839 91.8712 11.2631 91.9253 11.1294C91.9794 10.9956 92.0046 10.8519 91.9993 10.7078C92.0165 9.65368 91.7795 8.61095 91.3085 7.66779C90.8649 6.79238 90.1845 6.05897 89.3449 5.55093C88.4695 5.0331 87.4676 4.7683 86.4507 4.78599C85.4025 4.77015 84.37 5.04153 83.4651 5.5707C82.5895 6.09435 81.8774 6.85184 81.4088 7.758C80.9088 8.73431 80.6567 9.81864 80.6747 10.9154C80.6587 12.0131 80.9273 13.0962 81.4545 14.0592C81.9611 14.976 82.714 15.7328 83.6282 16.244C84.4303 16.682 85.3175 16.9419 86.2292 17.0058C87.1409 17.0698 88.0557 16.9364 88.9111 16.6147C89.5853 16.3834 90.2129 16.034 90.7648 15.5829C90.8709 15.4933 90.9564 15.3817 91.015 15.2558C91.0737 15.1299 91.1043 14.9927 91.1046 14.8538C91.103 14.6995 91.0684 14.5474 91.0032 14.4075C90.9379 14.2677 90.8436 14.1435 90.7264 14.0431L90.6943 14.0184C90.5059 13.8732 90.2759 13.7922 90.0381 13.7873C89.7568 13.7909 89.4849 13.8898 89.267 14.0678L89.2559 14.0777C88.9288 14.3418 88.5548 14.5417 88.1536 14.6672C87.7053 14.8233 87.2343 14.9044 86.7596 14.9069C85.6907 14.9069 84.7898 14.5807 84.083 13.9381C83.4604 13.3674 83.0489 12.6032 82.9152 11.7693H90.9093C91.1956 11.7807 91.4747 11.678 91.6854 11.4838ZM82.9782 9.76612C83.131 9.00841 83.5117 8.31549 84.0694 7.78025C84.6873 7.19449 85.4942 6.89791 86.4507 6.89791C87.4072 6.89791 88.1696 7.19326 88.7653 7.77654C89.303 8.31669 89.6559 9.01313 89.7737 9.76612H82.9782Z" fill="#191C1F"/>
<path d="M55.642 5.02006C55.2552 4.84706 54.7585 4.76179 54.122 4.76179C53.3687 4.75768 52.6254 4.9344 51.9545 5.2771C51.5745 5.47045 51.2241 5.71722 50.914 6.00991C50.9211 5.8573 50.8972 5.70483 50.8438 5.56172C50.7903 5.41862 50.7083 5.28784 50.6029 5.17732C50.4974 5.06679 50.3706 4.97882 50.2301 4.91871C50.0897 4.85859 49.9385 4.8276 49.7857 4.8276C49.633 4.8276 49.4818 4.85859 49.3413 4.91871C49.2009 4.97882 49.0741 5.06679 48.9686 5.17732C48.8631 5.28784 48.7812 5.41862 48.7277 5.56172C48.6742 5.70483 48.6503 5.8573 48.6575 6.00991V15.7836C48.6503 15.9362 48.6742 16.0886 48.7277 16.2318C48.7812 16.3749 48.8631 16.5056 48.9686 16.6162C49.0741 16.7267 49.2009 16.8147 49.3413 16.8748C49.4818 16.9349 49.633 16.9659 49.7857 16.9659C49.9385 16.9659 50.0897 16.9349 50.2301 16.8748C50.3706 16.8147 50.4974 16.7267 50.6029 16.6162C50.7083 16.5056 50.7903 16.3749 50.8438 16.2318C50.8972 16.0886 50.9211 15.9362 50.914 15.7836V9.58003C50.9022 9.21838 50.9741 8.85889 51.1241 8.52963C51.2742 8.20037 51.4983 7.91024 51.779 7.6819C52.3697 7.18759 53.152 6.93055 54.1023 6.93055C54.2578 6.9287 54.4133 6.9353 54.5681 6.95033C54.8783 6.97875 55.1045 6.99358 55.2429 6.99358C55.4724 7.00381 55.7004 6.95171 55.9028 6.84282C56.1102 6.70969 56.2574 6.50085 56.313 6.26077C56.3413 6.16623 56.3543 6.06777 56.3514 5.96913C56.3514 5.6812 56.2278 5.28081 55.642 5.02006Z" fill="#191C1F"/>
<path d="M16.6647 0.468968C16.2782 0.46235 15.9044 0.606901 15.6229 0.871827C15.4791 1.00703 15.3656 1.17124 15.2899 1.3536C15.2143 1.53596 15.1783 1.73231 15.1842 1.92964C15.1804 2.12287 15.2152 2.31492 15.2868 2.49447C15.3583 2.67402 15.465 2.83744 15.6007 2.9751C15.7349 3.11635 15.8971 3.22809 16.0768 3.3032C16.2566 3.37831 16.4501 3.41513 16.6449 3.41132C16.84 3.41264 17.0334 3.37518 17.2139 3.30112C17.3944 3.22706 17.5584 3.11788 17.6964 2.97992C17.8344 2.84195 17.9435 2.67795 18.0176 2.49744C18.0917 2.31694 18.1291 2.12351 18.1278 1.92841C18.1338 1.73107 18.0977 1.53473 18.0221 1.35237C17.9465 1.17001 17.833 1.00579 17.6891 0.870591C17.4134 0.607728 17.0456 0.463522 16.6647 0.468968Z" fill="#0A5AFA"/>
<path d="M16.6653 4.88335C16.5133 4.87944 16.3621 4.9065 16.2209 4.96287C16.0797 5.01925 15.9514 5.10376 15.8439 5.21127C15.7364 5.31877 15.6519 5.44703 15.5955 5.58823C15.5391 5.72943 15.5121 5.88062 15.516 6.03261V15.7704C15.5121 15.9224 15.5391 16.0736 15.5955 16.2148C15.6519 16.356 15.7364 16.4843 15.8439 16.5918C15.9514 16.6993 16.0797 16.7838 16.2209 16.8402C16.3621 16.8965 16.5133 16.9236 16.6653 16.9197C16.8172 16.9247 16.9685 16.8976 17.1093 16.8401C17.2501 16.7826 17.3771 16.696 17.4821 16.586C17.5853 16.4773 17.666 16.3493 17.7197 16.2094C17.7733 16.0694 17.7988 15.9203 17.7948 15.7704V6.03261C17.7988 5.88278 17.7733 5.73361 17.7197 5.59366C17.666 5.4537 17.5853 5.32571 17.4821 5.21701C17.377 5.10721 17.2499 5.02077 17.1092 4.96328C16.9684 4.9058 16.8172 4.87857 16.6653 4.88335Z" fill="#0A5AFA"/>
<path d="M26.7628 10.1591L30.6641 6.62852C30.7835 6.5365 30.8807 6.4187 30.9483 6.2839C31.0159 6.1491 31.0522 6.00078 31.0546 5.84999C31.0405 5.58245 30.9314 5.32872 30.7469 5.13449C30.654 5.01704 30.5354 4.92252 30.4002 4.85823C30.265 4.79395 30.1168 4.76162 29.9671 4.76376C29.6961 4.7662 29.4363 4.87182 29.2405 5.0591L23.9576 9.83657V1.15903C23.9626 1.00764 23.9371 0.856794 23.8826 0.715458C23.8281 0.574122 23.7458 0.445188 23.6405 0.336325C23.5352 0.227462 23.409 0.140895 23.2696 0.0817746C23.1301 0.0226539 22.9802 -0.0078125 22.8287 -0.0078125C22.6772 -0.0078125 22.5273 0.0226539 22.3878 0.0817746C22.2484 0.140895 22.1223 0.227462 22.0169 0.336325C21.9116 0.445188 21.8293 0.574122 21.7748 0.715458C21.7203 0.856794 21.6948 1.00764 21.6998 1.15903V15.788C21.6948 15.9394 21.7203 16.0902 21.7748 16.2316C21.8293 16.3729 21.9116 16.5019 22.0169 16.6107C22.1223 16.7196 22.2484 16.8061 22.3878 16.8653C22.5273 16.9244 22.6772 16.9549 22.8287 16.9549C22.9802 16.9549 23.1301 16.9244 23.2696 16.8653C23.409 16.8061 23.5352 16.7196 23.6405 16.6107C23.7458 16.5019 23.8281 16.3729 23.8826 16.2316C23.9371 16.0902 23.9626 15.9394 23.9576 15.788V12.6838L25.1365 11.6148L29.1811 16.5814C29.2756 16.7125 29.4 16.8191 29.5441 16.8924C29.6881 16.9657 29.8475 17.0035 30.0091 17.0028C30.2657 16.9966 30.5132 16.9063 30.7135 16.7457L30.7283 16.7334C30.8534 16.6363 30.955 16.5124 31.0258 16.3708C31.0966 16.2292 31.1347 16.0736 31.1374 15.9153C31.1389 15.6599 31.045 15.4131 30.8742 15.2233L26.7628 10.1591Z" fill="#0A5AFA"/>
<path d="M11.4114 7.79915C10.8916 6.87811 10.1329 6.11435 9.21541 5.58837C8.26514 5.06156 7.19647 4.78516 6.10994 4.78516C5.02341 4.78516 3.95473 5.06156 3.00446 5.58837C2.08451 6.11327 1.32362 6.87715 0.802333 7.79915C0.265819 8.74906 -0.010811 9.82362 0.000323311 10.9145V20.6276C0.000323347 20.9324 0.121402 21.2247 0.33693 21.4403C0.552459 21.6558 0.844772 21.7769 1.14958 21.7769C1.45438 21.7769 1.74671 21.6558 1.96223 21.4403C2.17776 21.2247 2.29884 20.9324 2.29884 20.6276V15.4547C2.69901 15.8408 3.15469 16.1649 3.65076 16.4161C4.46476 16.825 5.36466 17.0334 6.27552 17.0241C7.32797 17.0379 8.36438 16.7655 9.27399 16.2359C10.1836 15.7064 10.9322 14.9396 11.4398 14.0175C11.9634 13.0679 12.232 11.9988 12.2196 10.9145C12.2304 9.82366 11.9538 8.74917 11.4175 7.79915H11.4114ZM5.86278 14.885H5.79852L5.70336 14.8776C5.6045 14.8677 5.52047 14.8578 5.44015 14.8442L5.3314 14.8269C5.31953 14.8224 5.30702 14.8199 5.29433 14.8195L5.18806 14.7973C4.97934 14.7519 4.77536 14.6869 4.57882 14.6033C4.53905 14.5889 4.50025 14.572 4.46267 14.5526C4.42559 14.5378 4.39099 14.5205 4.35021 14.4995L4.23899 14.4426C4.20068 14.4229 4.16484 14.4018 4.12776 14.3808C3.54398 14.0441 3.06359 13.5539 2.73877 12.9634C2.406 12.3335 2.23208 11.6319 2.23208 10.9195C2.23208 10.2071 2.406 9.50542 2.73877 8.8755C3.06584 8.28265 3.54648 7.78877 4.13024 7.44572C4.34967 7.31524 4.58251 7.20876 4.82474 7.12813C4.90383 7.10095 4.98539 7.075 5.07189 7.05399C5.41074 6.9654 5.7597 6.92137 6.10994 6.923C6.8042 6.91484 7.48763 7.09552 8.08716 7.44572C8.67004 7.78948 9.15012 8.28321 9.47739 8.8755C9.81016 9.50542 9.9841 10.2071 9.9841 10.9195C9.9841 11.6319 9.81016 12.3335 9.47739 12.9634C9.15181 13.5533 8.6716 14.0434 8.0884 14.3808C7.4871 14.7258 6.80434 14.9033 6.11117 14.8949H5.96289L5.86278 14.885Z" fill="#0A5AFA"/>
<path d="M66.4604 5.58837C65.5101 5.06156 64.4414 4.78516 63.3549 4.78516C62.2684 4.78516 61.1997 5.06156 60.2494 5.58837C59.3295 6.11295 58.569 6.87694 58.0485 7.79915C57.5118 8.749 57.2352 9.8236 57.2465 10.9145C57.234 11.9989 57.5026 13.0679 58.0263 14.0175C58.5339 14.9392 59.2824 15.7056 60.1918 16.2349C61.1011 16.7642 62.1372 17.0366 63.1893 17.0229C64.0996 17.032 64.999 16.824 65.8128 16.4161C66.3088 16.1643 66.7645 15.8398 67.1647 15.4535V15.7908C67.16 15.9428 67.1872 16.094 67.2447 16.2348C67.3022 16.3755 67.3886 16.5025 67.4984 16.6077C67.6071 16.7109 67.7351 16.7916 67.8751 16.8453C68.015 16.8989 68.1642 16.9244 68.314 16.9203C68.4661 16.9242 68.6174 16.897 68.7587 16.8405C68.9 16.784 69.0283 16.6993 69.1358 16.5916C69.242 16.4874 69.3258 16.3627 69.3821 16.225C69.4384 16.0873 69.466 15.9396 69.4633 15.7908V10.9145C69.4744 9.82362 69.1978 8.74906 68.6613 7.79915C68.1408 6.87694 67.3802 6.11295 66.4604 5.58837ZM67.2018 10.9145C67.2119 11.6281 67.0374 12.3322 66.6952 12.9585C66.3725 13.5468 65.8968 14.0369 65.3185 14.3771C64.7217 14.7221 64.0429 14.8997 63.3537 14.8912C62.6605 14.8992 61.9779 14.7217 61.3764 14.3771C60.7931 14.0393 60.3128 13.5488 59.9874 12.9585C59.6547 12.3286 59.4807 11.6269 59.4807 10.9145C59.4807 10.2021 59.6547 9.50047 59.9874 8.87056C60.3148 8.27796 60.7954 7.78417 61.3789 7.44078C61.9783 7.09023 62.6618 6.90953 63.3561 6.91805C64.0458 6.90915 64.7247 7.08998 65.3185 7.44078C65.8981 7.78628 66.3754 8.27975 66.7013 8.87056C67.0429 9.49704 67.217 10.2011 67.2068 10.9145H67.2018Z" fill="#0A5AFA"/>
<path d="M77.7543 14.6389H77.1945C76.9422 14.6489 76.6908 14.6035 76.4578 14.5059C76.2249 14.4084 76.0162 14.261 75.8463 14.0742C75.4879 13.6861 75.3149 13.1955 75.3149 12.5727V7.37015H77.3193C77.461 7.37524 77.6023 7.35158 77.7346 7.30061C77.8669 7.24964 77.9876 7.17241 78.0892 7.07357C78.1854 6.9787 78.2614 6.86526 78.3123 6.74013C78.3633 6.615 78.3883 6.4808 78.3858 6.3457C78.3897 6.20719 78.3652 6.06935 78.314 5.94059C78.2628 5.81183 78.1859 5.69486 78.088 5.59683C77.9866 5.49797 77.8662 5.42071 77.7341 5.36973C77.602 5.31875 77.4609 5.29511 77.3193 5.30025H75.3149V2.42709C75.3188 2.275 75.2917 2.1237 75.2353 1.98241C75.1789 1.84113 75.0942 1.71281 74.9866 1.60529C74.879 1.49776 74.7505 1.41328 74.6092 1.35698C74.4678 1.30069 74.3165 1.27376 74.1644 1.27783C74.0125 1.27328 73.8614 1.30062 73.7207 1.35809C73.58 1.41556 73.4529 1.50188 73.3476 1.61149C73.1401 1.83152 73.0281 2.12475 73.0362 2.42709V5.30395H72.0278C71.8861 5.29865 71.7448 5.32221 71.6124 5.37319C71.4801 5.42417 71.3594 5.50152 71.2579 5.60054C71.1603 5.69876 71.0837 5.81579 71.0327 5.94452C70.9818 6.07325 70.9575 6.211 70.9613 6.34941C70.9584 6.48456 70.9832 6.61889 71.0342 6.74408C71.0852 6.86928 71.1613 6.98268 71.2579 7.07727C71.3594 7.17629 71.4801 7.25364 71.6124 7.30462C71.7448 7.3556 71.8861 7.37916 72.0278 7.37386H73.0362V12.5727C73.0246 13.3403 73.2065 14.0985 73.5651 14.7773C73.915 15.4331 74.4388 15.9799 75.0791 16.3574C75.7194 16.735 76.4513 16.9289 77.1945 16.9177H77.6308C77.9452 16.9257 78.2504 16.8114 78.4822 16.5988C78.5972 16.4977 78.6889 16.3729 78.7509 16.233C78.813 16.093 78.844 15.9413 78.8418 15.7882C78.85 15.4904 78.7439 15.2007 78.5452 14.9788C78.4459 14.8682 78.3237 14.7805 78.1872 14.7219C78.0506 14.6632 77.9029 14.6349 77.7543 14.6389Z" fill="#0A5AFA"/>
<path d="M43.9346 4.8869C43.7849 4.88117 43.6357 4.90644 43.4962 4.96111C43.3567 5.01578 43.23 5.09868 43.1241 5.20462C43.0182 5.31055 42.9353 5.43723 42.8806 5.5767C42.8259 5.71618 42.8007 5.86545 42.8064 6.01515V12.1581C42.8098 12.6414 42.6639 13.114 42.3887 13.5113C42.0936 13.9334 41.6919 14.2698 41.2246 14.4863C40.696 14.7326 40.1184 14.8559 39.5353 14.8472C38.5232 14.8472 37.6977 14.5543 37.0811 13.9747C36.4644 13.3951 36.1605 12.5388 36.1605 11.4105V6.01144C36.163 5.86274 36.1352 5.71508 36.0789 5.57742C36.0227 5.43976 35.939 5.31499 35.833 5.21067C35.7253 5.10324 35.597 5.01882 35.4557 4.96253C35.3144 4.90623 35.1632 4.87924 35.0112 4.88319C34.8624 4.88103 34.7147 4.90873 34.5769 4.96466C34.439 5.0206 34.3138 5.10362 34.2086 5.20883C34.1034 5.31403 34.0203 5.43927 33.9644 5.57713C33.9085 5.715 33.8808 5.86268 33.8829 6.01144V11.4068C33.8829 12.5672 34.1202 13.583 34.5898 14.4258C35.0428 15.2561 35.7305 15.9343 36.567 16.3758C37.433 16.8249 38.3968 17.0525 39.3722 17.0382C40.1484 17.0445 40.917 16.8861 41.6275 16.5735C42.0516 16.3848 42.4492 16.1414 42.8101 15.8494C42.8207 16.1225 42.9311 16.3824 43.1203 16.5797C43.2251 16.69 43.3521 16.7768 43.4929 16.8345C43.6336 16.8922 43.785 16.9195 43.9371 16.9146C44.0891 16.9185 44.2403 16.8914 44.3815 16.8351C44.5227 16.7787 44.651 16.6942 44.7585 16.5867C44.866 16.4792 44.9505 16.3509 45.0068 16.2097C45.0632 16.0685 45.0903 15.9173 45.0864 15.7653V6.01144C45.0909 5.85953 45.0636 5.70836 45.0061 5.56766C44.9486 5.42697 44.8623 5.29988 44.7527 5.1946C44.5315 4.98783 44.2373 4.87718 43.9346 4.8869Z" fill="#0A5AFA"/>
<path d="M91.6854 11.4838C91.7895 11.3839 91.8712 11.2631 91.9253 11.1294C91.9794 10.9956 92.0046 10.8519 91.9993 10.7078C92.0165 9.65368 91.7795 8.61095 91.3085 7.66779C90.8649 6.79238 90.1845 6.05897 89.3449 5.55093C88.4695 5.0331 87.4676 4.7683 86.4507 4.78599C85.4025 4.77015 84.37 5.04153 83.4651 5.5707C82.5895 6.09435 81.8774 6.85184 81.4088 7.758C80.9088 8.73431 80.6567 9.81864 80.6747 10.9154C80.6587 12.0131 80.9273 13.0962 81.4545 14.0592C81.9611 14.976 82.714 15.7328 83.6282 16.244C84.4303 16.682 85.3175 16.9419 86.2292 17.0058C87.1409 17.0698 88.0557 16.9364 88.9111 16.6147C89.5853 16.3834 90.2129 16.034 90.7648 15.5829C90.8709 15.4933 90.9564 15.3817 91.015 15.2558C91.0737 15.1299 91.1043 14.9927 91.1046 14.8538C91.103 14.6995 91.0684 14.5474 91.0032 14.4075C90.9379 14.2677 90.8436 14.1435 90.7264 14.0431L90.6943 14.0184C90.5059 13.8732 90.2759 13.7922 90.0381 13.7873C89.7568 13.7909 89.4849 13.8898 89.267 14.0678L89.2559 14.0777C88.9288 14.3418 88.5548 14.5417 88.1536 14.6672C87.7053 14.8233 87.2343 14.9044 86.7596 14.9069C85.6907 14.9069 84.7898 14.5807 84.083 13.9381C83.4604 13.3674 83.0489 12.6032 82.9152 11.7693H90.9093C91.1956 11.7807 91.4747 11.678 91.6854 11.4838ZM82.9782 9.76612C83.131 9.00841 83.5117 8.31549 84.0694 7.78025C84.6873 7.19449 85.4942 6.89791 86.4507 6.89791C87.4072 6.89791 88.1696 7.19326 88.7653 7.77654C89.303 8.31669 89.6559 9.01313 89.7737 9.76612H82.9782Z" fill="#0A5AFA"/>
<path d="M55.642 5.02006C55.2552 4.84706 54.7585 4.76179 54.122 4.76179C53.3687 4.75768 52.6254 4.9344 51.9545 5.2771C51.5745 5.47045 51.2241 5.71722 50.914 6.00991C50.9211 5.8573 50.8972 5.70483 50.8438 5.56172C50.7903 5.41862 50.7083 5.28784 50.6029 5.17732C50.4974 5.06679 50.3706 4.97882 50.2301 4.91871C50.0897 4.85859 49.9385 4.8276 49.7857 4.8276C49.633 4.8276 49.4818 4.85859 49.3413 4.91871C49.2009 4.97882 49.0741 5.06679 48.9686 5.17732C48.8631 5.28784 48.7812 5.41862 48.7277 5.56172C48.6742 5.70483 48.6503 5.8573 48.6575 6.00991V15.7836C48.6503 15.9362 48.6742 16.0886 48.7277 16.2318C48.7812 16.3749 48.8631 16.5056 48.9686 16.6162C49.0741 16.7267 49.2009 16.8147 49.3413 16.8748C49.4818 16.9349 49.633 16.9659 49.7857 16.9659C49.9385 16.9659 50.0897 16.9349 50.2301 16.8748C50.3706 16.8147 50.4974 16.7267 50.6029 16.6162C50.7083 16.5056 50.7903 16.3749 50.8438 16.2318C50.8972 16.0886 50.9211 15.9362 50.914 15.7836V9.58003C50.9022 9.21838 50.9741 8.85889 51.1241 8.52963C51.2742 8.20037 51.4983 7.91024 51.779 7.6819C52.3697 7.18759 53.152 6.93055 54.1023 6.93055C54.2578 6.9287 54.4133 6.9353 54.5681 6.95033C54.8783 6.97875 55.1045 6.99358 55.2429 6.99358C55.4724 7.00381 55.7004 6.95171 55.9028 6.84282C56.1102 6.70969 56.2574 6.50085 56.313 6.26077C56.3413 6.16623 56.3543 6.06777 56.3514 5.96913C56.3514 5.6812 56.2278 5.28081 55.642 5.02006Z" fill="#0A5AFA"/>
</g>
<defs>
<clipPath id="clip0_4667_194722">
<rect width="92" height="22" fill="white"/>
</clipPath>
</defs>
</svg>
